<?xml version="1.0" encoding="utf-8"?>
<!-- Generator: Adobe Illustrator 18.1.1, SVG Export Plug-In . SVG Version: 6.00 Build 0)  -->
<svg version="1.1" xmlns="http://www.w3.org/2000/svg" xmlns:xlink="http://www.w3.org/1999/xlink" x="0px" y="0px"
	 viewBox="0 0 24 24" enable-background="new 0 0 24 24" xml:space="preserve">
<g id="Black" display="none">
	<rect x="-3437" y="-13469" display="inline" width="19882" height="19882"/>
</g>
<g id="Gray" display="none">
	<rect x="-3437" y="-13469" display="inline" fill="#B3B3B3" width="19882" height="19882"/>
</g>
<g id="Background">
</g>
<g id="Slice">
</g>
<g id="L_x5F_Object">
</g>
<g id="M_x5F_Object">
	<g id="ボックス_x3000_強調_x3000_強">
	</g>
	<path fill="#333333" d="M13,18h-2v-2h2V18z M12,5C9.7,5,8,6.8,8,9.3h2C10,7.9,10.8,7,12,7c0.9,0,2,0.2,2,1.4c0,0.7-0.5,1.2-1.3,1.9
		c-0.3,0.2-0.6,0.5-0.8,0.7c-0.6,0.6-0.8,1.3-0.9,2v2h2c0-0.3,0-0.6,0-0.9c0-1.1,0-1.4,0.3-1.8c0.2-0.2,0.4-0.4,0.6-0.5
		c0.9-0.7,2.1-1.7,2.1-3.4C16,6.3,14.4,5,12,5z"/>
</g>
<g id="U_x5F_Object">
</g>
<g id="Gd">
</g>
<g id="Cp">
</g>
<g id="Change">
</g>
</svg>
