<?xml version="1.0" encoding="utf-8"?>
<!-- Generator: Adobe Illustrator 18.1.1, SVG Export Plug-In . SVG Version: 6.00 Build 0)  -->
<svg version="1.1" xmlns="http://www.w3.org/2000/svg" xmlns:xlink="http://www.w3.org/1999/xlink" x="0px" y="0px"
	 viewBox="0 0 24 24" enable-background="new 0 0 24 24" xml:space="preserve">
<g id="Black" display="none">
	<rect x="-3513" y="-13501" display="inline" width="19882" height="19882"/>
</g>
<g id="Gray" display="none">
	<rect x="-3513" y="-13501" display="inline" fill="#B3B3B3" width="19882" height="19882"/>
</g>
<g id="Background">
</g>
<g id="Slice">
</g>
<g id="L_x5F_Object">
</g>
<g id="M_x5F_Object">
	<g id="ボックス_x3000_強調_x3000_強">
	</g>
	<path fill="#5C5C5C" d="M14,6h-1H5v15h12V10V9L14,6z M15.6,9H14V7.4L15.6,9z M16,20H6V7h7v2v1h1h2V20z M8,13v-1h6v1H8z M8,15v-1h6
		v1H8z M8,17v-1h4v1H8z M17,3h-1H8v2h1V4h7v2v1h1h2v10h-1v1h2V7V6L17,3z M17,6V4.4L18.6,6H17z"/>
</g>
<g id="U_x5F_Object">
</g>
<g id="Gd">
</g>
<g id="Cp">
</g>
<g id="Change">
</g>
</svg>
