<?xml version="1.0" encoding="utf-8"?>
<!-- Generator: Adobe Illustrator 18.1.1, SVG Export Plug-In . SVG Version: 6.00 Build 0)  -->
<svg version="1.1" xmlns="http://www.w3.org/2000/svg" xmlns:xlink="http://www.w3.org/1999/xlink" x="0px" y="0px"
	 viewBox="0 0 30 38" enable-background="new 0 0 30 38" xml:space="preserve">
<g id="Black" display="none">
	<rect x="-3379" y="-13277" display="inline" width="19882" height="19882"/>
</g>
<g id="Gray" display="none">
	<rect x="-3379" y="-13277" display="inline" fill="#B3B3B3" width="19882" height="19882"/>
</g>
<g id="Background">
</g>
<g id="Slice">
</g>
<g id="L_x5F_Object">
</g>
<g id="M_x5F_Object">
	<g id="ボックス_x3000_強調_x3000_強">
	</g>
	<g>
		<g>
			<path d="M3,38c-1.7,0-3-1.3-3-3V3c0-1.7,1.3-3,3-3h24c1.7,0,3,1.3,3,3v32c0,1.7-1.3,3-3,3H3z"/>
			<path fill="#333333" d="M29,35c0,1.1-0.9,2-2,2H3c-1.1,0-2-0.9-2-2V3c0-1.1,0.9-2,2-2h24c1.1,0,2,0.9,2,2V35z"/>
		</g>
		<rect x="4" y="4" fill="#D9D9D9" width="22" height="30"/>
		<rect x="13" y="2" fill="#666665" width="4" height="1"/>
		<rect x="24" y="2" fill="#666665" width="1" height="1"/>
	</g>
</g>
<g id="U_x5F_Object">
</g>
<g id="Gd">
</g>
<g id="Cp">
</g>
<g id="Change">
</g>
</svg>
