<?xml version="1.0" encoding="utf-8"?>
<!-- Generator: Adobe Illustrator 18.1.1, SVG Export Plug-In . SVG Version: 6.00 Build 0)  -->
<svg version="1.1" xmlns="http://www.w3.org/2000/svg" xmlns:xlink="http://www.w3.org/1999/xlink" x="0px" y="0px"
	 viewBox="0 0 24 24" enable-background="new 0 0 24 24" xml:space="preserve">
<g id="Black" display="none">
	<rect x="-3585" y="-13469" display="inline" width="19882" height="19882"/>
</g>
<g id="Gray" display="none">
	<rect x="-3585" y="-13469" display="inline" fill="#B3B3B3" width="19882" height="19882"/>
</g>
<g id="Background">
</g>
<g id="Slice">
</g>
<g id="L_x5F_Object">
</g>
<g id="M_x5F_Object">
	<g id="ボックス_x3000_強調_x3000_強">
	</g>
	<path fill="#333333" d="M17,20.8c-0.2,0-0.3-0.1-0.5-0.2L12,17.1l-4.5,3.5c-0.3,0.2-0.6,0.2-0.9,0c-0.3-0.2-0.4-0.5-0.3-0.8
		l1.8-5.7l-4.5-3.5c-0.3-0.2-0.4-0.5-0.3-0.8C3.4,9.5,3.7,9.2,4,9.2h5.6l1.7-5.5c0.1-0.3,0.4-0.5,0.7-0.5s0.6,0.2,0.7,0.5l1.7,5.5
		H20c0.3,0,0.6,0.2,0.7,0.5c0.1,0.3,0,0.6-0.3,0.8l-4.5,3.5l1.8,5.7c0.1,0.3,0,0.7-0.3,0.8C17.3,20.7,17.1,20.8,17,20.8z M13.2,16.2
		l2.3,1.8L14.7,15L13.2,16.2z M9.3,15L8.4,18l2.3-1.8L9.3,15z M9.8,13.5l2.2,1.7l2.2-1.7l-0.9-2.8h-2.6L9.8,13.5z M14.9,10.8
		l0.6,1.8l2.3-1.8H14.9z M6.2,10.8l2.3,1.8l0.6-1.8H6.2z M11.1,9.2h1.7L12,6.5L11.1,9.2z"/>
</g>
<g id="U_x5F_Object">
</g>
<g id="Gd">
</g>
<g id="Cp">
</g>
<g id="Change">
</g>
</svg>
