<?xml version="1.0" encoding="utf-8"?>
<!-- Generator: Adobe Illustrator 18.1.1, SVG Export Plug-In . SVG Version: 6.00 Build 0)  -->
<svg version="1.1" xmlns="http://www.w3.org/2000/svg" xmlns:xlink="http://www.w3.org/1999/xlink" x="0px" y="0px"
	 viewBox="0 0 24 24" enable-background="new 0 0 24 24" xml:space="preserve">
<g id="Black" display="none">
	<rect x="-3553" y="-13469" display="inline" width="19882" height="19882"/>
</g>
<g id="Gray" display="none">
	<rect x="-3553" y="-13469" display="inline" fill="#B3B3B3" width="19882" height="19882"/>
</g>
<g id="Background">
</g>
<g id="Slice">
</g>
<g id="L_x5F_Object">
</g>
<g id="M_x5F_Object">
	<g id="ボックス_x3000_強調_x3000_強">
	</g>
	<path fill="#333333" d="M20,18.1l-4.9-4.9c0.6-0.9,0.9-2,0.9-3.2c0-3.3-2.7-6-6-6s-6,2.7-6,6s2.7,6,6,6c1.2,0,2.2-0.3,3.2-0.9
		l4.9,4.9L20,18.1z M5,10c0-2.8,2.2-5,5-5s5,2.2,5,5s-2.2,5-5,5S5,12.8,5,10z"/>
</g>
<g id="U_x5F_Object">
</g>
<g id="Gd">
</g>
<g id="Cp">
</g>
<g id="Change">
</g>
</svg>
