<?xml version="1.0" encoding="utf-8"?>
<!-- Generator: Adobe Illustrator 18.1.1, SVG Export Plug-In . SVG Version: 6.00 Build 0)  -->
<svg version="1.1" xmlns="http://www.w3.org/2000/svg" xmlns:xlink="http://www.w3.org/1999/xlink" x="0px" y="0px"
	 viewBox="0 0 24 24" enable-background="new 0 0 24 24" xml:space="preserve">
<g id="Black" display="none">
	<rect x="-3341" y="-13661" display="inline" width="19882" height="19882"/>
</g>
<g id="Gray" display="none">
	<rect x="-3341" y="-13661" display="inline" fill="#B3B3B3" width="19882" height="19882"/>
</g>
<g id="Background">
</g>
<g id="Slice">
</g>
<g id="L_x5F_Object">
</g>
<g id="M_x5F_Object">
	<g id="ボックス_x3000_強調_x3000_強">
	</g>
	<path fill="#333333" d="M23,18h-3v3h-2v-3h-3v-2h3v-3h2v3h3V18z M3,8V5h5.3l0.8,2.3L9.3,8H10h9v4h1V8c0-0.5-0.4-1-1-1h-9L9,4H2
		c0,0,0,3.9,0,4v9c0,0.5,0.4,1,1,1h11v-1H3V8z"/>
</g>
<g id="U_x5F_Object">
</g>
<g id="Gd">
</g>
<g id="Cp">
</g>
<g id="Change">
</g>
</svg>
