<?xml version="1.0" encoding="utf-8"?>
<!-- Generator: Adobe Illustrator 18.1.1, SVG Export Plug-In . SVG Version: 6.00 Build 0)  -->
<svg version="1.1" xmlns="http://www.w3.org/2000/svg" xmlns:xlink="http://www.w3.org/1999/xlink" x="0px" y="0px"
	 viewBox="0 0 40 40" enable-background="new 0 0 40 40" xml:space="preserve">
<g id="Black" display="none">
	<rect x="-3389" y="-13341" display="inline" width="19882" height="19882"/>
</g>
<g id="Gray" display="none">
	<rect x="-3389" y="-13341" display="inline" fill="#B3B3B3" width="19882" height="19882"/>
</g>
<g id="Background">
</g>
<g id="Slice">
</g>
<g id="L_x5F_Object">
</g>
<g id="M_x5F_Object">
	<g id="ボックス_x3000_強調_x3000_強">
	</g>
	<g>
		<g>
			<path d="M14,32c-1.7,0-3-1.3-3-3V10c0-1.7,1.3-3,3-3h12c1.7,0,3,1.3,3,3v19c0,1.7-1.3,3-3,3H14z"/>
			<path fill="#333333" d="M28,29c0,1.1-0.9,2-2,2H14c-1.1,0-2-0.9-2-2V10c0-1.1,0.9-2,2-2h12c1.1,0,2,0.9,2,2V29z"/>
		</g>
		<rect x="14" y="11" fill="#D9D9D9" width="12" height="17"/>
		<rect x="18" y="9" fill="#666665" width="4" height="1"/>
		<rect x="24" y="9" fill="#666665" width="1" height="1"/>
	</g>
	<g>
		<circle fill="#00B300" cx="26" cy="27" r="6"/>
		<path fill="#00FF00" d="M26,32c-2.8,0-5-2.2-5-5s2.2-5,5-5s5,2.2,5,5S28.8,32,26,32z"/>
	</g>
</g>
<g id="U_x5F_Object">
</g>
<g id="Gd">
</g>
<g id="Cp">
</g>
<g id="Change">
</g>
</svg>
