<svg xmlns="http://www.w3.org/2000/svg" viewBox="0 0 16 16"><defs><style>.cls-1{fill:gray;}</style></defs><title>Asset_Altair_NoConnection_Wifi</title><g id="M_Object"><path class="cls-1" d="M0,16H4.44V11.59H0ZM4.18,7.27a4.49,4.49,0,0,0-1.45.24V9.37A2.79,2.79,0,0,1,7,11.75a2.74,2.74,0,0,1-.42,1.44H8.44A4.47,4.47,0,0,0,4.18,7.27Zm0-3.63a8.22,8.22,0,0,0-1.45.14V5.5a6.54,6.54,0,0,1,1.45-.17,6.4,6.4,0,0,1,6.29,7.86h1.74a8.08,8.08,0,0,0,.14-1.44A8.15,8.15,0,0,0,4.18,3.63ZM4.18,0A12.23,12.23,0,0,0,2.73.1V1.81a10.24,10.24,0,0,1,1.45-.11A10.1,10.1,0,0,1,14.3,11.75a10.05,10.05,0,0,1-.12,1.44H15.9a11.63,11.63,0,0,0,.1-1.44A11.8,11.8,0,0,0,4.18,0Z"/></g></svg>