<?xml version="1.0" encoding="utf-8"?>
<!-- Generator: Adobe Illustrator 18.1.1, SVG Export Plug-In . SVG Version: 6.00 Build 0)  -->
<svg version="1.1" xmlns="http://www.w3.org/2000/svg" xmlns:xlink="http://www.w3.org/1999/xlink" x="0px" y="0px"
	 viewBox="0 0 24 24" enable-background="new 0 0 24 24" xml:space="preserve">
<g id="Black" display="none">
	<rect x="-3341" y="-13853" display="inline" width="19882" height="19882"/>
</g>
<g id="Gray" display="none">
	<rect x="-3341" y="-13853" display="inline" fill="#B3B3B3" width="19882" height="19882"/>
</g>
<g id="Background">
</g>
<g id="Slice">
</g>
<g id="L_x5F_Object">
</g>
<g id="M_x5F_Object">
	<g id="ボックス_x3000_強調_x3000_強">
	</g>
	<polygon fill="#333333" points="14.5,2.5 12.8,3.7 11.6,2 10.3,3.7 8.6,2.4 8,4.4 6,3.8 5.9,5.9 3.8,5.9 4.5,7.9 2.5,8.5 3.7,10.2 
		2,11.4 3.7,12.7 2.4,14.4 4.4,15.1 3.8,17 5.9,17.1 5.9,19.2 7.9,18.5 8.5,20.5 10.2,19.3 11.4,21 12.7,19.3 14.4,20.6 15.1,18.6 
		17,19.2 17.1,17.1 19.2,17.1 18.5,15.1 20.5,14.5 19.3,12.8 21,11.6 19.3,10.3 20.6,8.6 18.6,7.9 19.2,6 17.1,5.9 17.1,3.8 
		15.1,4.5 	"/>
	<polygon fill="#FFFFFF" points="10,9 10,14 11,14 12,14 12,13 11,13 11,12 12,12 12,11 11,11 11,10 12,10 12,9 11,9 	"/>
	<g>
		<polygon fill="#FFFFFF" points="6,11 6,10 6,9 5,9 5,14 6,14 		"/>
		<polygon fill="#FFFFFF" points="8,9 8,12 8,13 8,14 9,14 9,9 		"/>
	</g>
	<polygon fill="#FFFFFF" points="6,9 6,11 8,14 8,12 	"/>
	<polygon fill="#FFFFFF" points="17,9 16.5,12 16,9 15,9 14.5,12 14,9 13,9 14,14 15,14 15.5,11.5 16,14 17,14 18,9 	"/>
</g>
<g id="U_x5F_Object">
</g>
<g id="Gd">
</g>
<g id="Cp">
</g>
<g id="Change">
</g>
</svg>
