<?xml version="1.0" encoding="utf-8"?>
<!-- Generator: Adobe Illustrator 18.1.1, SVG Export Plug-In . SVG Version: 6.00 Build 0)  -->
<svg version="1.1" xmlns="http://www.w3.org/2000/svg" xmlns:xlink="http://www.w3.org/1999/xlink" x="0px" y="0px"
	 viewBox="0 0 24 24" enable-background="new 0 0 24 24" xml:space="preserve">
<g id="Black" display="none">
	<rect x="-3373" y="-13469" display="inline" width="19882" height="19882"/>
</g>
<g id="Gray" display="none">
	<rect x="-3373" y="-13469" display="inline" fill="#B3B3B3" width="19882" height="19882"/>
</g>
<g id="Background">
</g>
<g id="Slice">
</g>
<g id="L_x5F_Object">
</g>
<g id="M_x5F_Object">
	<g id="ボックス_x3000_強調_x3000_強">
	</g>
	<path fill="#333333" d="M5,11V7c0-1.1,0.9-2,2-2h4v2H7v4H5z M13,7h4v4h2V7c0-1.1-0.9-2-2-2h-4V7z M17,13v4h-4v2h4c1.1,0,2-0.9,2-2
		v-4H17z M11,17H7v-4H5v4c0,1.1,0.9,2,2,2h4V17z"/>
</g>
<g id="U_x5F_Object">
</g>
<g id="Gd">
</g>
<g id="Cp">
</g>
<g id="Change">
</g>
</svg>
