<?xml version="1.0" encoding="utf-8"?>
<!-- Generator: Adobe Illustrator 18.1.1, SVG Export Plug-In . SVG Version: 6.00 Build 0)  -->
<svg version="1.1" xmlns="http://www.w3.org/2000/svg" xmlns:xlink="http://www.w3.org/1999/xlink" x="0px" y="0px"
	 viewBox="0 0 40 40" enable-background="new 0 0 40 40" xml:space="preserve">
<g id="Black" display="none">
	<rect x="-3389" y="-13389" display="inline" width="19882" height="19882"/>
</g>
<g id="Gray" display="none">
	<rect x="-3389" y="-13389" display="inline" fill="#B3B3B3" width="19882" height="19882"/>
</g>
<g id="Background">
</g>
<g id="Slice">
</g>
<g id="L_x5F_Object">
</g>
<g id="M_x5F_Object">
	<g id="ボックス_x3000_強調_x3000_強">
	</g>
	<g opacity="0.5">
		<g>
			<path d="M14,32c-1.7,0-3-1.3-3-3V10c0-1.7,1.3-3,3-3h12c1.7,0,3,1.3,3,3v19c0,1.7-1.3,3-3,3H14z"/>
			<path fill="#333333" d="M28,29c0,1.1-0.9,2-2,2H14c-1.1,0-2-0.9-2-2V10c0-1.1,0.9-2,2-2h12c1.1,0,2,0.9,2,2V29z"/>
		</g>
		<rect x="14" y="11" fill="#D9D9D9" width="12" height="17"/>
		<rect x="18" y="9" fill="#666665" width="4" height="1"/>
		<rect x="24" y="9" fill="#666665" width="1" height="1"/>
	</g>
	<g>
		<path opacity="0.9" fill="#FFFFFF" d="M30.2,33.2c-0.5,0-1.1-0.2-1.4-0.6L26,29.9l-2.7,2.7c-0.4,0.4-0.9,0.6-1.4,0.6
			c-0.5,0-1.1-0.2-1.4-0.6c-0.8-0.8-0.8-2.1,0-2.9l2.7-2.7l-2.7-2.7c-0.8-0.8-0.8-2.1,0-2.9c0.4-0.4,0.9-0.6,1.4-0.6
			c0.5,0,1.1,0.2,1.4,0.6l2.7,2.7l2.7-2.7c0.4-0.4,0.9-0.6,1.4-0.6c0.5,0,1.1,0.2,1.4,0.6c0.8,0.8,0.8,2.1,0,2.9L28.9,27l2.7,2.7
			c0.8,0.8,0.8,2.1,0,2.9C31.2,33,30.7,33.2,30.2,33.2z"/>
		<path fill="#333333" d="M27.2,27l3.6-3.6c0.3-0.3,0.3-0.9,0-1.2c-0.3-0.3-0.9-0.3-1.2,0L26,25.8l-3.6-3.6c-0.3-0.3-0.9-0.3-1.2,0
			c-0.3,0.3-0.3,0.9,0,1.2l3.6,3.6l-3.6,3.6c-0.3,0.3-0.3,0.9,0,1.2c0.2,0.2,0.4,0.2,0.6,0.2c0.2,0,0.4-0.1,0.6-0.2l3.6-3.6l3.6,3.6
			c0.2,0.2,0.4,0.2,0.6,0.2c0.2,0,0.4-0.1,0.6-0.2c0.3-0.3,0.3-0.9,0-1.2L27.2,27z"/>
	</g>
</g>
<g id="U_x5F_Object">
</g>
<g id="Gd">
</g>
<g id="Cp">
</g>
<g id="Change">
</g>
</svg>
