<svg xmlns="http://www.w3.org/2000/svg" viewBox="0 0 16 16"><defs><style>.cls-1{fill:gray;}</style></defs><title>Asset_Altair_NoConnection_USB</title><g id="M_Object"><path class="cls-1" d="M15.82,8.24,13.69,7.08a.33.33,0,0,0-.33,0,.35.35,0,0,0-.16.29V8H4.27c.15-.22.29-.46.43-.7.39-.66.92-1.55,1.34-1.55H8.43a1.15,1.15,0,0,0,1,.64A1.2,1.2,0,0,0,9.44,4a1.15,1.15,0,0,0-1,.63H6c-1,0-1.68,1.11-2.26,2.08C3.51,7.16,3,8,2.79,8h0a1.46,1.46,0,0,0-1.33-.91,1.5,1.5,0,0,0,0,3,1.45,1.45,0,0,0,1.35-1H5.65c.22,0,.69.8.95,1.22.57,1,1.21,2,2.26,2h1.22V13h2.27V10.65H10.07v.62H8.85c-.44,0-.94-.84-1.34-1.51-.13-.22-.26-.44-.39-.64H13.2v.61a.35.35,0,0,0,.16.3.32.32,0,0,0,.33,0l2.13-1.16a.37.37,0,0,0,0-.63Z"/></g></svg>