<?xml version="1.0" encoding="utf-8"?>
<!-- Generator: Adobe Illustrator 18.1.1, SVG Export Plug-In . SVG Version: 6.00 Build 0)  -->
<svg version="1.1" xmlns="http://www.w3.org/2000/svg" xmlns:xlink="http://www.w3.org/1999/xlink" x="0px" y="0px"
	 viewBox="0 0 24 24" enable-background="new 0 0 24 24" xml:space="preserve">
<g id="Black" display="none">
	<rect x="-3513" y="-13565" display="inline" width="19882" height="19882"/>
</g>
<g id="Gray" display="none">
	<rect x="-3513" y="-13565" display="inline" fill="#B3B3B3" width="19882" height="19882"/>
</g>
<g id="Background">
</g>
<g id="Slice">
</g>
<g id="L_x5F_Object">
</g>
<g id="M_x5F_Object">
	<g>
		<path fill="#1A1A1A" d="M13.5,6H13H4v16h13V10V9.5L13.5,6z M15,9.5h-1.5V8L15,9.5z M15.5,20.5l-10,0v-13H12V10v1h2h1.5L15.5,20.5z
			 M7,13.5V12h7v1.5H7z M7,15.5V14h7v1.5H7z M7,17.5V16h5v1.5H7z"/>
		<path fill="#1A1A1A" d="M17.5,2H17H8v3h1.5V3.5H16V5v1v1h2h1.5v9.5H18V18h3V6V5.5L17.5,2z M17.5,5.5V4L19,5.5H17.5z"/>
	</g>
	<g id="ボックス_x3000_強調_x3000_強">
	</g>
</g>
<g id="U_x5F_Object">
</g>
<g id="Gd">
</g>
<g id="Cp">
</g>
<g id="Change">
</g>
</svg>
