<svg xmlns="http://www.w3.org/2000/svg" viewBox="0 0 480 240"><defs><style>.cls-1{fill:#fff;}.cls-2{fill:#231815;}.cls-3{fill:none;stroke:#000;stroke-miterlimit:10;stroke-width:2px;}.cls-4{fill:#333;}</style></defs><title>Asset_Altair_Main_Instruction_USB</title><g id="M_Object"><rect class="cls-1" x="285.5" y="44.5" width="123" height="165" rx="2.07" ry="2.07"/><path d="M406.43,45A1.57,1.57,0,0,1,408,46.57V207.43a1.57,1.57,0,0,1-1.57,1.57H287.57a1.57,1.57,0,0,1-1.57-1.57V46.57A1.57,1.57,0,0,1,287.57,45H406.43m0-1H287.57A2.58,2.58,0,0,0,285,46.57V207.43a2.58,2.58,0,0,0,2.57,2.57H406.43a2.58,2.58,0,0,0,2.57-2.57V46.57A2.58,2.58,0,0,0,406.43,44Z"/><polygon points="358.94 43 355.06 43 355 44 359 44 358.94 43"/><path d="M346.29,48h-.57c-.94,0-1.71.23-1.71.5s.77.5,1.71.5h.57c.94,0,1.71-.23,1.71-.5s-.77-.5-1.71-.5Z"/><path class="cls-2" d="M402.14,52a.86.86,0,0,1,.86.86V199.14a.86.86,0,0,1-.86.86H291.86a.86.86,0,0,1-.86-.86V52.86a.86.86,0,0,1,.86-.86H402.14m0-1H291.86A1.86,1.86,0,0,0,290,52.86V199.14a1.86,1.86,0,0,0,1.86,1.86H402.14a1.86,1.86,0,0,0,1.86-1.86V52.86A1.86,1.86,0,0,0,402.14,51Z"/><path class="cls-3" d="M234,197h23.77a3.35,3.35,0,0,0,3.23-3V31a2.89,2.89,0,0,1,3-3h75a3,3,0,0,1,3,3V44.51"/><rect x="339.78" y="40.29" width="4.25" height="4.25"/><polygon points="239 201 239 197.33 232.22 194 225 194 225 201 239 201"/><rect class="cls-1" x="88.5" y="99.5" width="129" height="93" rx="1.5" ry="1.5"/><path class="cls-4" d="M216,100a1,1,0,0,1,1,1v90a1,1,0,0,1-1,1H90a1,1,0,0,1-1-1V101a1,1,0,0,1,1-1H216m0-1H90a2,2,0,0,0-2,2v90a2,2,0,0,0,2,2H216a2,2,0,0,0,2-2V101a2,2,0,0,0-2-2Z"/><rect class="cls-1" x="96.5" y="107.5" width="113" height="74"/><path class="cls-4" d="M209,108v73H97V108H209m1-1H96v75H210V107Z"/><path class="cls-1" d="M73.25,210.5a1.73,1.73,0,0,1-1.75-1.71v-8.37a1.69,1.69,0,0,1,1-1.53L88.3,189.5H217.7l15.78,9.37a1.72,1.72,0,0,1,1,1.55v8.37a1.73,1.73,0,0,1-1.75,1.71Z"/><path class="cls-4" d="M217.57,190l15.66,9.3,0,0,0,0a1.2,1.2,0,0,1,.69,1.08v8.37a1.23,1.23,0,0,1-1.25,1.21H73.25A1.23,1.23,0,0,1,72,208.79v-8.37a1.2,1.2,0,0,1,.69-1.08l0,0,0,0L88.43,190H217.57m.27-1H88.16l-15.9,9.44a2.21,2.21,0,0,0-1.26,2v8.37A2.23,2.23,0,0,0,73.25,211h159.5a2.23,2.23,0,0,0,2.25-2.21v-8.37a2.21,2.21,0,0,0-1.26-2L217.84,189Z"/><rect class="cls-4" x="71" y="201" width="164" height="1"/></g></svg>