<?xml version="1.0" encoding="utf-8"?>
<!-- Generator: Adobe Illustrator 18.1.1, SVG Export Plug-In . SVG Version: 6.00 Build 0)  -->
<svg version="1.1" xmlns="http://www.w3.org/2000/svg" xmlns:xlink="http://www.w3.org/1999/xlink" x="0px" y="0px"
	 viewBox="0 0 24 24" enable-background="new 0 0 24 24" xml:space="preserve">
<g id="Black" display="none">
	<rect x="-3405" y="-13725" display="inline" width="19882" height="19882"/>
</g>
<g id="Gray" display="none">
	<rect x="-3405" y="-13725" display="inline" fill="#B3B3B3" width="19882" height="19882"/>
</g>
<g id="Background">
</g>
<g id="Slice">
</g>
<g id="L_x5F_Object">
</g>
<g id="M_x5F_Object">
	<g id="ボックス_x3000_強調_x3000_強">
	</g>
	<g>
		<polygon fill="#1A1A1A" points="19,6 5,6 4,5 20,5 		"/>
		<path fill="#1A1A1A" d="M10,4h4v1h1V4c0-0.5-0.4-1-1-1h-4C9.4,3,9,3.5,9,4v1h1V4z"/>
		<path fill="#1A1A1A" d="M17,7v12H7V7H6v12c0,0.5,0.4,1,1,1h10c0.6,0,1-0.5,1-1V7H17z"/>
		<rect x="10" y="7" fill="#1A1A1A" width="1" height="10"/>
		<rect x="13" y="7" fill="#1A1A1A" width="1" height="10"/>
	</g>
</g>
<g id="U_x5F_Object">
</g>
<g id="Gd">
</g>
<g id="Cp">
</g>
<g id="Change">
</g>
</svg>
