<?xml version="1.0" encoding="utf-8"?>
<!-- Generator: Adobe Illustrator 18.1.1, SVG Export Plug-In . SVG Version: 6.00 Build 0)  -->
<svg version="1.1" xmlns="http://www.w3.org/2000/svg" xmlns:xlink="http://www.w3.org/1999/xlink" x="0px" y="0px"
	 viewBox="0 0 24 24" enable-background="new 0 0 24 24" xml:space="preserve">
<g id="Black" display="none">
	<rect x="-3405" y="-13469" display="inline" width="19882" height="19882"/>
</g>
<g id="Gray" display="none">
	<rect x="-3405" y="-13469" display="inline" fill="#B3B3B3" width="19882" height="19882"/>
</g>
<g id="Background">
</g>
<g id="Slice">
</g>
<g id="L_x5F_Object">
</g>
<g id="M_x5F_Object">
	<g id="ボックス_x3000_強調_x3000_強">
	</g>
	<g>
		<path fill="#333333" d="M18.7,8H16V7.4C16,6.6,15.4,6,14.6,6H9.4C8.6,6,8,6.6,8,7.4V8H6H5.3C4.6,8.1,4,8.7,4,9.4V10v1v1v1v3v0.7
			C4,17.4,4.6,18,5.3,18h13.5c0.7,0,1.3-0.6,1.3-1.3V16v-3v-1v-1v-1V9.4C20,8.7,19.4,8.1,18.7,8z M9,7h6v1H9V7z M19,16v0.7
			c0,0.2-0.1,0.3-0.3,0.3H5.3C5.1,17,5,16.9,5,16.7V16v-3h2v1h2v-1h6v1h2v-1h2V16z M19,10v1v1h-2v-1h-2v1H9v-1H7v1H5v-1v-1V9.4
			C5,9.2,5.2,9.1,5.4,9H6h2h1h6h1h2.6C18.8,9.1,19,9.2,19,9.4V10z"/>
	</g>
</g>
<g id="U_x5F_Object">
</g>
<g id="Gd">
</g>
<g id="Cp">
</g>
<g id="Change">
</g>
</svg>
